<svg width="251" height="250" viewBox="0 0 251 250" fill="none" xmlns="http://www.w3.org/2000/svg">
<rect x="0.89209" width="250" height="250" rx="45" fill="#39AA5D"/>
<path d="M75.8851 89.2185C72.6072 92.3597 70.2598 96.1497 68.8173 100.597H59.3242V81.566H38.4197V102.103H53.5122V175.756H72.7267V119.043C72.7267 112.24 74.9545 106.811 79.4018 102.757C83.977 98.702 89.4741 96.6703 95.8848 96.6703C102.952 96.6703 108.117 98.5056 111.386 102.167C114.655 105.829 116.294 110.669 116.294 116.687V175.756H135.722V119.043C135.722 112.24 137.95 106.811 142.397 102.757C146.972 98.5653 152.469 96.4739 158.88 96.4739C165.948 96.4739 171.044 98.3092 174.185 101.971C177.454 105.633 179.093 110.541 179.093 116.687V175.739H198.521V113.341C198.521 106.017 197.078 99.8628 194.202 94.8949C191.453 89.7988 187.535 86.0003 182.431 83.5165C177.326 80.8959 171.308 79.5898 164.377 79.5898C159.144 79.5898 154.108 80.5032 149.269 82.3385C144.429 84.0457 140.178 86.6577 136.516 90.1916C134.665 92.0422 133.102 94.1246 131.826 96.4399C130.959 94.6568 129.905 92.967 128.663 91.3695C125.914 87.7075 122.252 84.8309 117.677 82.7396C113.102 80.6483 107.673 79.5984 101.39 79.5984C96.4224 79.5984 91.7107 80.4521 87.2635 82.1507C82.9527 83.7212 79.1541 86.0771 75.8851 89.2185Z" fill="white"/>
</svg>
